<svg width="673" height="807" viewBox="0 0 673 807" fill="none" xmlns="http://www.w3.org/2000/svg">
<g opacity="0.2">
<path d="M307.898 691.833L308.351 690.899C312.199 678.988 320.121 675.018 337.777 667.311C356.564 659.138 382.368 647.928 402.061 616.4C438.051 558.95 433.751 475.343 389.838 374.688C356.338 298.087 299.523 212.846 238.181 146.988C218.715 125.035 204.455 107.987 192.231 91.6394C170.824 64.1317 154.772 38.1776 143.21 12.7382C139.836 5.31471 132.56 0.325928 124.406 0.325928V0.325928C110.786 0.325928 101.218 13.6799 106.68 26.156C122.103 61.3881 142.669 91.2614 161.9 116.394C174.802 133.443 189.742 151.192 209.887 174.078L210.34 174.546C315.368 287.111 434.43 491.924 369.919 594.915C356.564 616.167 340.267 623.406 322.837 630.879C303.597 639.287 281.867 648.862 272.134 677.821C253.805 726.418 272.803 765.491 301.728 799.523C305.165 803.567 310.25 805.8 315.558 805.8V805.8C332.372 805.8 340.672 785.269 329.847 772.403C306.804 745.018 297 720.866 308.124 691.833" fill="#93ABB0" fill-opacity="0.3"/>
<path d="M41.7062 524.619C41.7062 516.912 41.2534 509.439 40.8007 502.199C39.8953 487.719 38.9899 474.174 42.8379 462.497C50.3076 439.844 75.4328 429.568 95.8046 429.568C95.8046 429.568 95.8046 429.568 96.031 429.568C121.156 429.568 146.508 441.245 170.501 453.156L175.934 455.958C200.38 468.102 225.731 480.713 253.347 484.45C270.549 486.785 283.678 483.749 293.185 475.342C307.219 462.964 310.388 441.479 302.692 412.053C287.3 352.734 274.397 318.638 239.765 272.864C235.012 266.559 225.731 256.984 212.829 243.438C170.598 199.64 90.7498 116.368 33.0993 9.90971C29.9999 4.18619 24.0445 0.558594 17.5356 0.558594L1.37935 0.558594C0.649108 0.558594 0.0571289 1.15057 0.0571289 1.88081V1.88081C0.0571289 2.08635 0.10537 2.28975 0.197477 2.47349C59.954 121.677 149.033 214.517 194.721 262.121C206.491 274.499 215.772 284.074 219.62 289.212C251.762 331.482 263.306 362.076 278.019 419.059C282.773 437.275 282.32 450.12 276.435 455.258C272.813 458.527 266.249 459.461 256.516 458.294C232.975 455.258 209.66 443.581 187.025 432.371L181.593 429.568C155.109 416.49 126.589 403.646 96.2573 403.412H95.8046C65.6996 403.412 30.1621 419.059 18.6181 454.324C13.1856 470.905 14.3174 487.953 15.2228 504.301C15.6755 511.307 16.1282 518.079 16.1282 524.619C15.9199 542.893 10.9156 560.772 2.35177 576.068C0.906718 578.649 0.0571289 581.534 0.0571289 584.492V584.492C0.0571289 598.336 15.5954 604.511 22.645 592.597C34.4806 572.594 41.2606 548.99 41.7062 525.086" fill="#93ABB0" fill-opacity="0.3"/>
<path d="M18.3917 370.952C35.5946 364.179 57.5509 368.383 79.0544 372.587C81.7707 373.054 84.4869 373.521 86.9768 374.222C122.741 380.761 146.508 377.024 159.863 362.545C169.369 352.269 172.312 337.089 168.238 320.741C164.616 306.262 156.241 293.184 148.319 281.974C126.815 251.38 100.332 223.356 74.7537 196.032C61.6252 182.02 48.044 167.774 35.3682 153.294C26.7281 143.357 18.8857 133.785 11.841 124.522C8.14009 119.656 0.0571289 122.224 0.0571289 128.338V128.338C0.0571289 129.681 0.490998 130.989 1.30156 132.061C8.67716 141.81 16.8638 151.78 25.8614 162.169C38.7635 176.882 52.3447 191.361 65.4732 205.373C90.8248 232.23 117.082 260.021 137.906 289.681C144.923 299.723 152.619 311.633 155.788 324.011C158.731 335.921 156.92 346.43 150.582 353.437C140.623 364.179 119.798 366.748 89.2404 361.143C86.5241 360.676 84.0342 360.209 81.318 359.742C58.2299 355.305 34.2365 350.634 13.8647 358.808C9.54106 360.554 5.68578 362.621 2.1692 365.145C0.80707 366.122 0.0571289 367.724 0.0571289 369.4V369.4C0.0571289 374.656 7.31195 377.396 11.7457 374.574C13.801 373.266 16.0096 372.125 18.3917 371.186" fill="#93ABB0" fill-opacity="0.3"/>
<path d="M180.01 664.739C187.027 637.415 178.652 621.768 168.466 616.397C156.243 609.858 140.398 615.696 127.948 631.343C110.293 656.566 97.1643 681.087 84.2621 704.908C66.7195 737.61 50.5814 767.596 25.9522 794.864C22.2381 798.976 25.0688 805.797 30.6099 805.797V805.797C32.3447 805.797 34.0042 805.068 35.1625 803.777C61.0546 774.909 77.8798 743.619 95.3535 711.214C108.029 687.626 121.158 663.572 137.908 639.284C146.057 629.008 156.016 624.571 162.58 628.074C168.013 631.11 172.766 641.619 167.56 661.236C160.77 687.393 150.357 714.016 140.171 739.705C132.485 759.632 124.799 779.028 119.205 797.43C117.964 801.51 121.058 805.563 125.323 805.563V805.563C128.216 805.563 130.75 803.642 131.587 800.873C136.967 783.072 144.455 764.137 151.942 744.61C162.128 718.453 172.766 691.363 179.783 664.506" fill="#93ABB0" fill-opacity="0.3"/>
<path d="M63.6624 310.233C76.3382 302.527 79.7335 287.113 72.2639 272.867C66.605 262.358 56.6455 253.717 46.9123 245.31L45.5542 244.142C33.7089 234.016 22.2431 223.628 11.1568 213.078C6.99807 209.12 0.0571289 212.042 0.0571289 217.783V217.783C0.0571289 219.553 0.781074 221.246 2.06436 222.465C13.441 233.27 25.2214 244.052 37.4054 254.418L38.7636 255.585C47.5914 263.059 56.6455 270.999 61.1726 279.173C64.5679 285.478 65.2469 293.886 57.0982 298.79C48.0441 304.395 32.4256 303.928 18.1654 303.694C14.3292 303.694 10.4931 303.694 6.71295 303.694C3.03702 303.694 0.0571289 306.674 0.0571289 310.35V310.35C0.0571289 314.026 3.03705 317.006 6.71298 317.006C10.6059 317.006 14.4988 317.006 18.3917 317.006C34.0101 317.473 51.4393 317.707 63.6624 310.233Z" fill="#93ABB0" fill-opacity="0.3"/>
<path d="M224.604 759.561C224.604 747.417 224.604 735.741 226.188 724.531C229.131 703.512 237.053 682.727 245.655 661.008C257.425 630.882 269.648 599.588 267.611 565.958C266.479 546.341 259.689 530.927 247.465 520.418C232.752 507.807 211.928 503.837 195.404 500.567C170.505 495.663 144.248 491.927 122.066 503.136C106.221 511.077 95.356 525.556 88.7917 547.275C85.3964 558.485 83.1329 569.928 81.0957 580.671C79.2849 589.779 77.7004 598.42 75.4369 606.827C69.778 627.846 60.4975 642.792 47.1427 653.068C38.5413 659.607 27.6763 664.745 16.3586 669.883C13.3194 671.382 10.1259 672.803 6.95825 674.282C2.80304 676.224 0.287537 680.45 0.287537 685.036L0.287537 696.99C0.287537 701.639 5.43616 704.476 9.56802 702.345V702.345C15.0005 699.542 20.6593 696.74 26.7709 693.937C38.994 688.332 51.4434 682.494 62.3084 674.086C80.1903 660.308 92.6397 640.69 99.883 613.834C102.599 604.258 104.41 594.683 105.995 585.575C108.032 574.833 110.069 564.791 113.012 554.982C117.539 540.269 123.876 531.395 133.157 526.724C148.096 519.017 169.6 522.287 190.424 526.257C204.232 528.826 221.209 532.095 230.715 540.502C237.28 546.107 240.901 554.982 241.807 567.359C243.391 594.917 232.979 622.007 221.661 650.733C213.06 673.152 204.006 696.273 200.61 720.561C198.8 733.639 198.8 746.717 198.8 759.328C198.8 771.238 198.8 782.448 197.215 793.425V793.425C196.537 799.718 200.982 805.569 207.312 805.569H212.458C217.502 805.569 222.161 801.955 222.567 796.928V796.928C224.151 784.317 224.377 771.705 224.377 759.561" fill="#93ABB0" fill-opacity="0.3"/>
<path d="M487.849 730.6C489.66 712.851 492.829 694.869 495.998 677.587C500.072 654.467 504.373 630.646 505.731 606.358C510.937 513.643 474.947 424.665 443.258 346.196C413.605 272.865 379.879 189.959 319.216 129.94C303.824 114.76 286.847 101.214 270.55 88.1363C256.29 76.9265 241.803 65.2496 228.448 52.6385C212.85 37.7525 200.443 22.6931 191.661 7.6098C189.103 3.21567 184.497 0.325928 179.412 0.325928V0.325928C169.856 0.325928 163.426 9.98991 168.079 18.3372C178.275 36.6297 192.589 54.5914 211.019 72.0222C225.053 85.3339 239.992 97.2443 254.705 108.921C270.55 121.532 286.847 134.61 301.334 148.856C358.149 205.139 390.744 285.476 419.49 356.238C450.275 431.905 485.133 517.847 480.153 604.49C478.795 627.143 474.947 649.095 470.873 672.449C467.704 690.432 464.535 708.881 462.498 727.331C459.974 752.371 460.281 775.006 463.562 795.382C464.502 801.219 469.657 805.333 475.569 805.333V805.333C483.826 805.333 489.855 797.49 488.592 789.331C485.873 771.756 485.668 751.956 488.076 730.133" fill="#93ABB0" fill-opacity="0.3"/>
<path d="M594.686 742.043C592.196 728.264 588.122 714.719 584.048 701.641C577.936 681.323 572.277 661.939 571.372 641.855C570.693 626.441 573.183 610.794 575.446 595.381C578.389 575.997 581.331 555.679 578.615 535.595C574.315 504.067 557.112 477.21 540.588 451.288C537.419 446.383 534.25 441.245 531.081 436.341C501.202 387.999 480.378 333.584 460.006 280.805C444.84 241.337 429.222 200.234 409.756 161.934C381.235 105.417 347.508 79.0275 314.687 53.3383C295.551 38.3064 277.042 23.7055 260.364 3.11689C259.065 1.51344 257.12 0.558594 255.056 0.558594V0.558594C249.598 0.558594 246.476 6.69036 249.911 10.9324C267.444 32.5911 286.99 48.0435 307.218 63.8475C338.681 88.6025 371.275 114.292 398.664 168.006C417.904 205.839 433.296 246.474 448.462 285.709C468.834 338.956 490.111 394.071 520.669 443.581C523.838 448.719 527.007 453.623 530.176 458.761C546.02 483.516 562.318 508.971 566.166 537.463C568.656 555.679 565.939 574.129 562.997 593.512C560.507 609.393 558.243 625.974 558.923 642.555C559.828 664.508 566.166 685.526 572.051 705.844C575.899 718.689 579.747 731.767 582.237 744.845C585.473 761.932 585.187 780.835 580.303 797.25C579.01 801.593 582.097 806.266 586.628 806.266V806.266C589.288 806.266 591.68 804.598 592.453 802.053C598.321 782.711 598.287 760.786 594.913 742.51" fill="#93ABB0" fill-opacity="0.3"/>
<path d="M646.296 707.012C637.921 673.616 629.998 642.088 628.187 609.393C627.282 594.913 627.735 579.733 628.187 565.254C629.093 536.062 629.772 506.169 621.623 476.743C612.116 443.113 592.197 415.322 572.957 388.465C563.677 375.387 553.943 362.076 545.795 348.297C519.99 304.392 507.088 252.079 509.804 200.934C511.842 160.765 527.913 112.19 565.94 97.0095C586.991 88.6021 613.927 91.4046 639.505 104.95C642.864 106.683 646.999 109.127 651.703 112.109C660.546 117.714 672.326 111.589 672.326 101.119V101.119C672.326 96.7998 670.18 92.7494 666.549 90.4104C660.606 86.5829 655.415 83.498 651.275 81.3625C619.133 64.5477 584.501 61.2782 556.66 72.488C507.088 92.3388 486.716 151.19 484.227 199.766C481.284 256.283 495.318 313.967 523.838 362.309C532.44 377.022 542.626 391.034 552.133 404.346C570.92 430.502 588.575 455.024 596.724 484.216C603.741 509.438 603.062 536.295 602.383 564.553C601.93 579.733 601.478 595.38 602.383 611.027C604.42 646.292 613.022 680.622 621.397 713.784C624.339 724.994 627.282 736.905 629.772 748.348C632.87 762.26 635.967 777.687 637.884 793.895C638.677 800.598 644.264 805.798 651.013 805.798V805.798C658.499 805.798 664.435 799.451 663.602 792.012C661.608 774.205 658.324 757.351 654.897 742.276C652.181 730.599 649.238 718.689 646.296 707.245" fill="#93ABB0" fill-opacity="0.3"/>
<path d="M603.966 163.801C575.672 181.083 559.601 218.215 563.223 258.15C566.392 292.948 582.463 325.877 599.666 356.003C602.156 360.207 604.419 364.41 606.909 368.848C621.169 393.836 635.882 419.525 643.805 446.849C651.048 471.838 652.632 498.461 654.217 524.384C654.896 536.295 655.575 548.672 656.933 561.05C657.737 568.649 658.778 576.228 660.045 583.78C661.615 593.139 672.778 591.733 672.778 582.243V582.243C672.778 581.816 672.745 581.389 672.679 580.966C671.58 573.938 670.494 566.903 669.835 559.648C668.477 547.738 667.798 535.594 667.119 523.684C665.534 497.06 663.95 469.736 656.254 443.113C647.879 414.154 632.94 387.764 618.227 362.309C615.737 358.105 613.473 353.901 610.983 349.697C592.196 316.301 579.068 287.81 576.351 257.216C573.182 222.419 586.764 190.191 610.757 175.478C626.375 165.903 646.294 163.567 664.176 169.172V169.172C668.13 170.427 672.551 167.734 672.551 163.586V162.477C672.551 160.016 671.067 157.871 668.778 156.969C668.451 156.84 668.125 156.706 667.798 156.561C646.521 149.789 622.754 152.591 603.966 164.034" fill="#93ABB0" fill-opacity="0.3"/>
<path d="M671.648 208.641C652.634 208.641 634.752 216.815 625.019 230.127C616.644 241.336 613.701 255.816 616.417 271.93C618.681 285.709 624.34 298.553 629.999 310.931L659.989 378.441C662.816 384.805 672.327 382.787 672.327 375.824V375.824C672.327 374.92 672.137 374.027 671.769 373.201L641.543 305.326C636.336 293.649 630.904 281.505 628.867 269.595C627.509 260.954 627.282 248.343 634.978 238.067C642.448 228.258 656.708 221.953 671.421 221.953H671.648V221.953C671.648 221.953 672.1 221.75 672.1 221.5V208.868C672.1 208.742 671.999 208.641 671.874 208.641V208.641C671.874 208.641 671.648 208.641 671.421 208.641" fill="#93ABB0" fill-opacity="0.3"/>
<path d="M648.788 46.7998C654.189 47.1182 659.589 47.545 664.917 48.0804C668.862 48.4768 672.329 45.4087 672.329 41.4438V41.4438C672.329 38.1026 669.835 35.2825 666.51 34.9575C660.842 34.4037 655.268 34.0109 649.694 33.4881C629.775 32.0869 610.987 30.6857 593.105 23.2124C581.354 18.1421 570.409 10.5747 559.89 1.88525C558.678 0.883959 557.159 0.325684 555.586 0.325684V0.325684C549.489 0.325684 546.63 7.78805 551.321 11.6831C562.707 21.1383 574.826 29.6396 588.352 35.3564C608.045 43.7638 628.643 45.165 648.788 46.7998Z" fill="#93ABB0" fill-opacity="0.3"/>
<path d="M424.021 93.2739C432.396 102.849 444.393 107.753 457.069 107.753C467.255 107.753 477.667 104.717 487.174 98.1782C505.735 85.8007 521.806 58.2432 506.188 21.3441C503.619 15.2275 500.014 9.1108 495.827 2.99413C494.674 1.3096 492.752 0.325684 490.711 0.325684V0.325684C485.477 0.325684 482.509 6.34784 485.455 10.6734C489.193 16.162 492.322 21.5277 494.417 26.7155C506.867 55.9078 495.096 77.1598 480.157 87.2019C466.123 96.5435 445.751 98.4118 433.302 84.3995C395.378 40.7223 368.837 17.6529 347.613 1.59304C346.52 0.766374 345.189 0.325684 343.819 0.325684V0.325684C337.627 0.325684 335.058 8.37153 339.993 12.1112C360.642 27.7579 386.528 50.3936 424.021 93.2739Z" fill="#93ABB0" fill-opacity="0.3"/>
</g>
</svg>
