<svg width="673" height="807" fill="none" xmlns="http://www.w3.org/2000/svg"><g opacity=".2" fill="#93ABB0" fill-opacity=".3"><path d="M307.898 691.833l.453-.934c3.848-11.911 11.77-15.881 29.426-23.588 18.787-8.173 44.591-19.383 64.284-50.911 35.99-57.45 31.69-141.057-12.223-241.712-33.5-76.601-90.315-161.842-151.657-227.7-19.466-21.953-33.726-39.001-45.95-55.349-21.407-27.507-37.459-53.461-49.021-78.9C139.836 5.314 132.56.325 124.406.325c-13.62 0-23.188 13.354-17.726 25.83 15.423 35.232 35.989 65.105 55.22 90.238 12.902 17.049 27.842 34.798 47.987 57.684l.453.468c105.028 112.565 224.09 317.378 159.579 420.369-13.355 21.252-29.652 28.491-47.082 35.964-19.24 8.408-40.97 17.983-50.703 46.942-18.329 48.597.669 87.67 29.594 121.702 3.437 4.044 8.522 6.277 13.83 6.277 16.814 0 25.114-20.531 14.289-33.397-23.043-27.385-32.847-51.537-21.723-80.57"/><path d="M41.706 524.619c0-7.707-.453-15.18-.905-22.42-.906-14.48-1.811-28.025 2.037-39.702 7.47-22.653 32.595-32.929 52.967-32.929h.226c25.125 0 50.477 11.677 74.47 23.588l5.433 2.802c24.446 12.144 49.797 24.755 77.413 28.492 17.202 2.335 30.331-.701 39.838-9.108 14.034-12.378 17.203-33.863 9.507-63.289-15.392-59.319-28.295-93.415-62.927-139.189-4.753-6.305-14.034-15.88-26.936-29.426C170.598 199.64 90.749 116.368 33.099 9.91 30 4.186 24.045.559 17.536.559H1.379C.65.559.057 1.15.057 1.88c0 .205.048.409.14.592 59.757 119.204 148.836 212.044 194.524 259.648 11.77 12.378 21.051 21.953 24.899 27.091 32.142 42.27 43.686 72.864 58.399 129.847 4.754 18.216 4.301 31.061-1.584 36.199-3.622 3.269-10.186 4.203-19.919 3.036-23.541-3.036-46.856-14.713-69.491-25.923l-5.432-2.803c-26.484-13.078-55.004-25.922-85.336-26.156h-.452c-30.105 0-65.643 15.647-77.187 50.912-5.432 16.581-4.3 33.629-3.395 49.977.452 7.006.905 13.778.905 20.318-.208 18.274-5.212 36.153-13.776 51.449-1.445 2.581-2.295 5.466-2.295 8.424 0 13.844 15.538 20.019 22.588 8.105 11.836-20.003 18.616-43.607 19.061-67.511"/><path d="M18.392 370.952c17.203-6.773 39.159-2.569 60.662 1.635 2.717.467 5.433.934 7.923 1.635 35.764 6.539 59.531 2.802 72.886-11.677 9.506-10.276 12.449-25.456 8.375-41.804-3.622-14.479-11.997-27.557-19.919-38.767-21.504-30.594-47.987-58.618-73.565-85.942-13.129-14.012-26.71-28.258-39.386-42.738-8.64-9.937-16.482-19.509-23.527-28.772-3.7-4.866-11.784-2.298-11.784 3.816a6.17 6.17 0 001.245 3.723c7.375 9.749 15.562 19.719 24.56 30.108 12.902 14.713 26.483 29.192 39.611 43.204 25.352 26.857 51.609 54.648 72.433 84.308 7.017 10.042 14.713 21.952 17.882 34.33 2.943 11.91 1.132 22.419-5.206 29.426-9.959 10.742-30.784 13.311-61.342 7.706-2.716-.467-5.206-.934-7.922-1.401-23.088-4.437-47.081-9.108-67.453-.934-4.324 1.746-8.18 3.813-11.696 6.337-1.362.977-2.112 2.579-2.112 4.255 0 5.256 7.255 7.996 11.689 5.174a38.957 38.957 0 016.646-3.388M180.01 664.739c7.017-27.324-1.358-42.971-11.544-48.342-12.223-6.539-28.068-.701-40.518 14.946-17.655 25.223-30.784 49.744-43.686 73.565-17.543 32.702-33.68 62.688-58.31 89.956-3.714 4.112-.883 10.933 4.658 10.933a6.113 6.113 0 004.553-2.02c25.892-28.868 42.717-60.158 60.19-92.563 12.676-23.588 25.805-47.642 42.555-71.93 8.149-10.276 18.108-14.713 24.672-11.21 5.433 3.036 10.186 13.545 4.98 33.162-6.79 26.157-17.203 52.78-27.389 78.469-7.686 19.927-15.372 39.323-20.966 57.725-1.241 4.08 1.853 8.133 6.118 8.133 2.893 0 5.427-1.921 6.264-4.69 5.38-17.801 12.868-36.736 20.355-56.263 10.186-26.157 20.824-53.247 27.841-80.104"/><path d="M63.662 310.233c12.676-7.706 16.072-23.12 8.602-37.366-5.659-10.509-15.618-19.15-25.352-27.557l-1.358-1.168a869.787 869.787 0 01-34.397-31.064c-4.159-3.958-11.1-1.036-11.1 4.705 0 1.77.724 3.463 2.007 4.682 11.377 10.805 23.157 21.587 35.341 31.953l1.359 1.167c8.827 7.474 17.881 15.414 22.409 23.588 3.395 6.305 4.074 14.713-4.075 19.617-9.054 5.605-24.672 5.138-38.933 4.904H6.713a6.656 6.656 0 000 13.312h11.679c15.618.467 33.047.701 45.27-6.773zM224.604 759.561c0-12.144 0-23.82 1.584-35.03 2.943-21.019 10.865-41.804 19.467-63.523 11.77-30.126 23.993-61.42 21.956-95.05-1.132-19.617-7.922-35.031-20.146-45.54-14.713-12.611-35.537-16.581-52.061-19.851-24.899-4.904-51.156-8.64-73.338 2.569-15.845 7.941-26.71 22.42-33.274 44.139-3.396 11.21-5.66 22.653-7.696 33.396-1.811 9.108-3.396 17.749-5.66 26.156-5.658 21.019-14.939 35.965-28.293 46.241-8.602 6.539-19.467 11.677-30.784 16.815-3.04 1.499-6.233 2.92-9.4 4.399-4.156 1.942-6.671 6.168-6.671 10.754v11.954c0 4.649 5.148 7.486 9.28 5.355 5.433-2.803 11.091-5.605 17.203-8.408 12.223-5.605 24.672-11.443 35.537-19.851 17.882-13.778 30.332-33.396 37.575-60.252 2.716-9.576 4.527-19.151 6.112-28.259 2.037-10.742 4.074-20.784 7.017-30.593 4.527-14.713 10.864-23.587 20.145-28.258 14.939-7.707 36.443-4.437 57.267-.467 13.808 2.569 30.785 5.838 40.291 14.245 6.565 5.605 10.186 14.48 11.092 26.857 1.584 27.558-8.828 54.648-20.146 83.374-8.601 22.419-17.655 45.54-21.051 69.828-1.81 13.078-1.81 26.156-1.81 38.767 0 11.91 0 23.12-1.585 34.097-.678 6.293 3.767 12.144 10.097 12.144h5.146c5.044 0 9.703-3.614 10.109-8.641 1.584-12.611 1.81-25.223 1.81-37.367M487.849 730.6c1.811-17.749 4.98-35.731 8.149-53.013 4.074-23.12 8.375-46.941 9.733-71.229 5.206-92.715-30.784-181.693-62.473-260.162-29.653-73.331-63.379-156.237-124.042-216.256-15.392-15.18-32.369-28.726-48.666-41.804-14.26-11.21-28.747-22.886-42.102-35.497-15.598-14.887-28.005-29.946-36.787-45.03-2.558-4.393-7.164-7.283-12.249-7.283-9.556 0-15.986 9.664-11.333 18.011 10.196 18.293 24.51 36.254 42.94 53.685 14.034 13.312 28.973 25.222 43.686 36.899 15.845 12.611 32.142 25.689 46.629 39.935 56.815 56.283 89.41 136.62 118.156 207.382 30.785 75.667 65.643 161.609 60.663 248.252-1.358 22.653-5.206 44.605-9.28 67.959-3.169 17.983-6.338 36.432-8.375 54.882-2.524 25.04-2.217 47.675 1.064 68.051.94 5.837 6.095 9.951 12.007 9.951 8.257 0 14.286-7.843 13.023-16.002-2.719-17.575-2.924-37.375-.516-59.198"/><path d="M594.686 742.043c-2.49-13.779-6.564-27.324-10.638-40.402-6.112-20.318-11.771-39.702-12.676-59.786-.679-15.414 1.811-31.061 4.074-46.474 2.943-19.384 5.885-39.702 3.169-59.786-4.3-31.528-21.503-58.385-38.027-84.307-3.169-4.905-6.338-10.043-9.507-14.947-29.879-48.342-50.703-102.757-71.075-155.536-15.166-39.468-30.784-80.571-50.25-118.871-28.521-56.517-62.248-82.906-95.069-108.596-19.136-15.032-37.645-29.633-54.323-50.221-1.299-1.604-3.244-2.558-5.308-2.558-5.458 0-8.58 6.131-5.145 10.373 17.533 21.66 37.079 37.111 57.307 52.915 31.463 24.756 64.057 50.445 91.446 104.159 19.24 37.833 34.632 78.468 49.798 117.703 20.372 53.247 41.649 108.362 72.207 157.872 3.169 5.138 6.338 10.042 9.507 15.18 15.844 24.755 32.142 50.21 35.99 78.702 2.49 18.216-.227 36.666-3.169 56.049-2.49 15.881-4.754 32.462-4.074 49.043.905 21.953 7.243 42.971 13.128 63.289 3.848 12.845 7.696 25.923 10.186 39.001 3.236 17.087 2.95 35.99-1.934 52.405-1.293 4.343 1.794 9.016 6.325 9.016 2.66 0 5.052-1.668 5.825-4.213 5.868-19.342 5.834-41.267 2.46-59.543"/><path d="M646.296 707.012c-8.375-33.396-16.298-64.924-18.109-97.619-.905-14.48-.452-29.66 0-44.139.906-29.192 1.585-59.085-6.564-88.511-9.507-33.63-29.426-61.421-48.666-88.278-9.28-13.078-19.014-26.389-27.162-40.168-25.805-43.905-38.707-96.218-35.991-147.363 2.038-40.169 18.109-88.744 56.136-103.924 21.051-8.408 47.987-5.605 73.565 7.94 3.359 1.733 7.494 4.177 12.198 7.159 8.843 5.605 20.623-.52 20.623-10.99 0-4.32-2.146-8.37-5.777-10.709-5.943-3.827-11.134-6.912-15.274-9.047-32.142-16.815-66.774-20.085-94.615-8.875-49.572 19.85-69.944 78.702-72.433 127.278-2.943 56.517 11.091 114.201 39.611 162.543 8.602 14.713 18.788 28.725 28.295 42.037 18.787 26.156 36.442 50.678 44.591 79.87 7.017 25.222 6.338 52.079 5.659 80.337-.453 15.18-.905 30.827 0 46.474 2.037 35.265 10.639 69.595 19.014 102.757 2.942 11.21 5.885 23.121 8.375 34.564 3.098 13.912 6.195 29.339 8.112 45.547.793 6.703 6.38 11.903 13.129 11.903 7.486 0 13.422-6.347 12.589-13.786-1.994-17.807-5.278-34.661-8.705-49.736a1576.959 1576.959 0 00-8.601-35.031"/><path d="M603.966 163.801c-28.294 17.282-44.365 54.414-40.743 94.349 3.169 34.798 19.24 67.727 36.443 97.853 2.49 4.204 4.753 8.407 7.243 12.845 14.26 24.988 28.973 50.677 36.896 78.001 7.243 24.989 8.827 51.612 10.412 77.535.679 11.911 1.358 24.288 2.716 36.666a377.312 377.312 0 003.112 22.73c1.57 9.359 12.733 7.953 12.733-1.537 0-.427-.033-.854-.099-1.277-1.099-7.028-2.185-14.063-2.844-21.318-1.358-11.91-2.037-24.054-2.716-35.964-1.585-26.624-3.169-53.948-10.865-80.571-8.375-28.959-23.314-55.349-38.027-80.804-2.49-4.204-4.754-8.408-7.244-12.612-18.787-33.396-31.915-61.887-34.632-92.481-3.169-34.797 10.413-67.025 34.406-81.738 15.618-9.575 35.537-11.911 53.419-6.306 3.954 1.255 8.375-1.438 8.375-5.586v-1.109c0-2.461-1.484-4.606-3.773-5.508a25.432 25.432 0 01-.98-.408c-21.277-6.772-45.044-3.97-63.832 7.473"/><path d="M671.648 208.641c-19.014 0-36.896 8.174-46.629 21.486-8.375 11.209-11.318 25.689-8.602 41.803 2.264 13.779 7.923 26.623 13.582 39.001l29.99 67.51c2.827 6.364 12.338 4.346 12.338-2.617 0-.904-.19-1.797-.558-2.623l-30.226-67.875c-5.207-11.677-10.639-23.821-12.676-35.731-1.358-8.641-1.585-21.252 6.111-31.528 7.47-9.809 21.73-16.114 36.443-16.114h.227s.452-.203.452-.453v-12.632a.226.226 0 00-.226-.227h-.453M648.788 46.8c5.401.318 10.801.745 16.129 1.28 3.945.397 7.412-2.671 7.412-6.636 0-3.341-2.494-6.162-5.819-6.486-5.668-.554-11.242-.947-16.816-1.47-19.919-1.401-38.707-2.802-56.589-10.276-11.751-5.07-22.696-12.637-33.215-21.327a6.763 6.763 0 00-4.304-1.56c-6.097 0-8.956 7.463-4.265 11.358 11.386 9.455 23.505 17.957 37.031 23.673 19.693 8.408 40.291 9.809 60.436 11.444zM424.021 93.274c8.375 9.575 20.372 14.479 33.048 14.479 10.186 0 20.598-3.036 30.105-9.575 18.561-12.377 34.632-39.935 19.014-76.834-2.569-6.117-6.174-12.233-10.361-18.35-1.153-1.684-3.075-2.668-5.116-2.668-5.234 0-8.202 6.022-5.256 10.347 3.738 5.489 6.867 10.855 8.962 16.042 12.45 29.193.679 50.445-14.26 60.487-14.034 9.341-34.406 11.21-46.855-2.802-37.924-43.678-64.465-66.747-85.689-82.807a6.281 6.281 0 00-3.794-1.267c-6.192 0-8.761 8.046-3.826 11.785 20.649 15.647 46.535 38.283 84.028 81.163z"/></g></svg>