<svg width={308} height={316} viewBox="0 0 308 316" fill="none" xmlns="http://www.w3.org/2000/svg">
  <path d="M242.975 48.6762C197.99 50.9967 185.649 11.4973 147.749 2.2497C107.388 -7.60313 89.1711 16.9103 84.8576 36.953C81.5325 52.4032 74.5435 59.1097 56.1236 63.4057C42.9946 65.8179 31.3612 72.6508 34.4083 91.393C37.4555 110.135 31.2791 121.326 22.0848 128.03C12.8905 134.736 4.31258 144.255 1.29562 156.657C-3.81441 177.649 6.57359 199.638 25.7191 209.386C47.2335 220.108 58.7881 231.845 57.277 256.189C56.8993 262.273 59.4345 294.643 90.195 284.858C97.964 282.387 130.103 265.722 149.606 296.652C154.462 304.354 166.487 311.932 177.476 314.617C206.943 321.809 237.07 300.054 240.062 270.099C243.307 247.934 247.333 237.541 271.258 245.283C294.931 252.943 309.097 219.945 295.852 203.017C277.468 183.938 299.404 149.626 306.371 120.996C315.893 81.8616 282.241 44.4141 242.975 48.6762Z" fill="#F2C94C" />
</svg>
