<svg width="143" height="98" viewBox="0 0 143 98" fill="none" xmlns="http://www.w3.org/2000/svg">
<g clip-path="url(#clip0_1_355)">
<path d="M67.0648 56.5649L67.1032 56.4885C67.4296 55.5142 68.1016 55.1895 69.5992 54.5591C71.1928 53.8904 73.3816 52.9735 75.0519 50.3945C78.1047 45.6951 77.7399 38.8561 74.0151 30.6226C71.1736 24.3567 66.3544 17.384 61.1513 11.9969C59.5001 10.2012 58.2905 8.80663 57.2537 7.4694C55.1418 4.85224 53.6442 2.40702 52.6458 0H49.1514C50.4762 3.82066 52.665 6.95361 54.681 9.49435C55.7754 10.8889 57.0425 12.3407 58.7513 14.2129L58.7897 14.2511C67.6984 23.4589 77.7975 40.2125 72.3256 48.637C71.1928 50.3754 69.8104 50.9676 68.332 51.5789C66.7 52.2667 64.8568 53.0499 64.0313 55.4187C62.3801 59.6405 64.3001 62.9836 67.0072 65.8873H71.6344C67.8712 62.3723 65.7784 59.8507 67.084 56.5649" fill="#020202"/>
<path d="M44.4859 42.8869C44.4859 42.2565 44.4475 41.6452 44.4091 41.053C44.3323 39.8686 44.2555 38.7606 44.5819 37.8054C45.2155 35.9524 47.3467 35.1118 49.0746 35.1118C49.0746 35.1118 49.0746 35.1118 49.0938 35.1118C51.225 35.1118 53.3754 36.067 55.4106 37.0413L55.8714 37.2705C57.9449 38.2639 60.0953 39.2955 62.4377 39.6011C63.8969 39.7921 65.0105 39.5438 65.8168 38.8561C67.0072 37.8436 67.276 36.0861 66.6232 33.6791C65.3177 28.8268 64.2233 26.0378 61.2857 22.2935C60.8825 21.7777 60.0953 20.9945 59.0009 19.8865C55.3146 16.1996 48.249 9.09312 43.3339 0.019043H40.9531V0.152766C46.0219 9.91456 53.5866 17.5177 57.4649 21.4148C58.4633 22.4272 59.2505 23.2105 59.5769 23.6307C62.3033 27.0884 63.2825 29.591 64.5305 34.2522C64.9337 35.7422 64.8953 36.7929 64.3961 37.2132C64.0889 37.4806 63.5321 37.5571 62.7065 37.4615C60.7097 37.2132 58.7321 36.258 56.8121 35.3411L56.3514 35.1118C54.105 34.042 51.6858 32.9914 49.113 32.9723H49.0746C46.5211 32.9723 43.5067 34.2522 42.5275 37.1368C42.0667 38.4931 42.1627 39.8877 42.2395 41.2249C42.2779 41.798 42.3163 42.352 42.3163 42.8869C42.2971 44.5107 41.7979 46.0962 40.9531 47.4144V50.7383C43.1227 48.828 44.4283 45.9052 44.4859 42.9251" fill="#020202"/>
<path d="M42.5083 30.3169C43.9675 29.7629 45.8299 30.1068 47.6538 30.4506C47.8842 30.4888 48.1146 30.5271 48.3258 30.5844C51.3594 31.1193 53.3754 30.8136 54.5082 29.6292C55.3146 28.7886 55.5642 27.5469 55.2186 26.2097C54.9114 25.0253 54.201 23.9555 53.529 23.0386C51.705 20.536 49.4586 18.2436 47.2891 16.0085C46.1755 14.8623 45.0235 13.697 43.9483 12.5126C42.7771 11.2136 41.7787 9.99099 40.9531 8.82568V10.6405C41.6059 11.481 42.3355 12.3407 43.1419 13.2385C44.2363 14.4421 45.3883 15.6265 46.5019 16.7727C48.6522 18.9695 50.8794 21.2428 52.6458 23.669C53.241 24.4904 53.8938 25.4647 54.1626 26.4771C54.4122 27.4514 54.2586 28.3111 53.721 28.8842C52.8762 29.7629 51.1098 29.9731 48.5178 29.5146C48.2874 29.4764 48.0762 29.4382 47.8458 29.4C45.8875 29.037 43.8523 28.6549 42.1243 29.3235C41.6827 29.4955 41.2987 29.7056 40.9531 29.9731V31.5013C41.3563 31.0046 41.8555 30.5844 42.5083 30.336" fill="#020202"/>
<path d="M56.217 54.3488C56.8122 52.1137 56.1018 50.8338 55.2378 50.3944C54.201 49.8596 52.857 50.3371 51.801 51.6171C50.3034 53.6802 49.1898 55.6861 48.0955 57.6346C46.4059 60.672 44.8699 63.4229 42.2587 65.8872H43.7755C46.0603 63.4802 47.5195 60.8631 49.0363 58.1504C50.1114 56.221 51.225 54.2533 52.6458 52.2666C53.337 51.426 54.1818 51.0631 54.7386 51.3496C55.1994 51.598 55.6026 52.4576 55.161 54.0623C54.585 56.2019 53.7018 58.3796 52.8378 60.481C52.089 62.3531 51.3402 64.1679 50.8602 65.8681H51.993C52.4538 64.3017 53.145 62.6206 53.8362 60.8822C54.7002 58.7426 55.6026 56.5266 56.1978 54.3297" fill="#020202"/>
<path d="M46.3483 25.3501C47.4235 24.7197 47.7115 23.4589 47.0779 22.2936C46.5979 21.434 45.7531 20.7271 44.9275 20.0394L44.8123 19.9439C43.4683 18.8359 42.1819 17.6897 40.9531 16.5244V18.0145C41.9707 18.9505 43.0267 19.8866 44.1211 20.7845L44.2363 20.88C44.9851 21.4913 45.7531 22.1408 46.1371 22.8094C46.4251 23.3252 46.4827 24.0129 45.7915 24.4141C45.0235 24.8726 43.6987 24.8344 42.4891 24.8153C41.9707 24.8153 41.4523 24.8153 40.9531 24.8153V25.9041C41.4715 25.9041 41.9899 25.9041 42.5083 25.9041C43.8331 25.9423 45.3115 25.9615 46.3483 25.3501Z" fill="#020202"/>
<path d="M59.9993 62.105C59.9993 61.1116 59.9993 60.1565 60.1337 59.2395C60.3833 57.5202 61.0553 55.82 61.7849 54.0434C62.7833 51.5791 63.8201 49.0192 63.6473 46.2683C63.5513 44.6637 62.9753 43.4028 61.9385 42.5432C60.6905 41.5116 58.9241 41.1869 57.5226 40.9194C55.4106 40.5182 53.1834 40.2126 51.3018 41.1296C49.9578 41.7791 49.0363 42.9635 48.4795 44.7401C48.1915 45.657 47.9995 46.5931 47.8267 47.4719C47.6731 48.2169 47.5387 48.9237 47.3467 49.6114C46.8667 51.3307 46.0795 52.5533 44.9467 53.3939C44.2171 53.9288 43.2955 54.349 42.3355 54.7693C41.8939 54.9795 41.4139 55.1705 40.9724 55.3997V57.8641C41.2219 57.7112 41.4907 57.5584 41.7595 57.4247C42.2203 57.1954 42.7003 56.9662 43.2187 56.737C44.2555 56.2785 45.3115 55.8009 46.2331 55.1132C47.7499 53.9861 48.8059 52.3814 49.4203 50.1845C49.6507 49.4013 49.8043 48.618 49.9387 47.873C50.1114 46.9943 50.2842 46.1728 50.5338 45.3705C50.9178 44.167 51.4554 43.4411 52.2426 43.059C53.5098 42.4286 55.3338 42.696 57.1002 43.0208C58.2714 43.2309 59.7113 43.4984 60.5177 44.1861C61.0745 44.6446 61.3817 45.3705 61.4585 46.383C61.5929 48.6372 60.7097 50.8531 59.7497 53.2028C59.0201 55.0368 58.2522 56.928 57.9642 58.9147C57.8106 59.9845 57.8106 61.0543 57.8106 62.0859C57.8106 63.0602 57.8106 63.9771 57.6762 64.875C57.6378 65.2188 57.561 65.5436 57.4842 65.8683H59.7113C59.7497 65.6391 59.8073 65.3908 59.8265 65.1615C59.9609 64.1299 59.9801 63.0984 59.9801 62.105" fill="#020202"/>
<path d="M82.3287 59.7361C82.4823 58.2842 82.7511 56.8133 83.0199 55.3996C83.3655 53.5084 83.7303 51.5598 83.8455 49.5731C84.287 41.9891 81.2343 34.7107 78.5463 28.292C76.0311 22.2936 73.1704 15.5119 68.0248 10.6023C66.7192 9.36062 65.2793 8.25263 63.8969 7.18285C62.6873 6.26589 61.4585 5.31072 60.3257 4.27914C58.7897 2.8655 57.6186 1.43275 56.8698 0H54.4698C55.3146 2.00585 56.7738 3.97349 58.8473 5.86472C60.0377 6.95361 61.3049 7.92788 62.5529 8.88304C63.8969 9.91462 65.2793 10.9844 66.508 12.1497C71.3272 16.7536 74.092 23.3251 76.5303 29.1135C79.1415 35.3029 82.0983 42.3329 81.6759 49.4203C81.5607 51.2733 81.2343 53.069 80.8887 54.9793C80.6199 56.4503 80.3511 57.9595 80.1783 59.4686C79.9287 61.8565 80.0055 63.977 80.4279 65.8491H82.6743C82.1943 64.1107 82.0791 62.0476 82.3479 59.6979" fill="#020202"/>
<path d="M91.391 60.6721C91.1798 59.545 90.8342 58.437 90.4886 57.3672C89.9702 55.7052 89.4902 54.1196 89.4134 52.4767C89.3558 51.2159 89.567 49.936 89.759 48.6752C90.0086 47.0896 90.2582 45.4276 90.0278 43.7847C89.663 41.2058 88.2038 39.0089 86.8022 36.8884C86.5334 36.4873 86.2646 36.067 85.9958 35.6658C83.4615 31.7114 81.6951 27.2604 79.9671 22.943C78.6807 19.7146 77.3559 16.3524 75.7048 13.2194C73.2856 8.59643 70.4248 6.43776 67.6409 4.33639C65.9513 3.05647 64.3193 1.81475 62.8601 0.019043H61.4777C63.1289 2.25413 65.0297 3.70598 67.0073 5.19604C69.676 7.22099 72.4408 9.32236 74.764 13.7161C76.396 16.8109 77.7015 20.1348 78.9879 23.3442C80.7159 27.6997 82.5207 32.2081 85.1127 36.258C85.3815 36.6783 85.6503 37.0795 85.919 37.4997C87.263 39.5247 88.6454 41.607 88.9718 43.9376C89.183 45.4276 88.9526 46.9368 88.703 48.5224C88.4918 49.8214 88.2998 51.1777 88.3574 52.534C88.4342 54.3298 88.9718 56.0491 89.471 57.711C89.7974 58.7617 90.1238 59.8315 90.335 60.9013C90.6614 62.5633 90.5654 64.4354 89.8934 65.9255H91.0838C91.6982 64.2635 91.7174 62.3149 91.4102 60.7103" fill="#020202"/>
<path d="M95.7685 57.8066C95.0581 55.0748 94.3861 52.4959 94.2325 49.8214C94.1557 48.637 94.1941 47.3953 94.2325 46.2109C94.3093 43.823 94.3669 41.3778 93.6757 38.9707C92.8694 36.2199 91.1798 33.9466 89.5478 31.7497C88.7606 30.6799 87.935 29.591 87.2438 28.4639C85.055 24.8725 83.9607 20.5934 84.191 16.4097C84.3638 13.124 85.727 9.15048 88.9526 7.90876C90.7382 7.22104 93.023 7.45028 95.1925 8.55827C95.8453 8.88303 96.8437 9.51344 97.9765 10.2776V7.67952C97.2661 7.22104 96.6517 6.85808 96.1909 6.62884C93.4645 5.2534 90.527 4.98595 88.1654 5.90291C83.9607 7.52669 82.2327 12.3407 82.0215 16.3142C81.7719 20.9372 82.9623 25.6557 85.3814 29.6101C86.111 30.8136 86.975 31.9598 87.7814 33.0487C89.375 35.1883 90.8726 37.1941 91.5638 39.5821C92.159 41.6452 92.1014 43.8421 92.0438 46.1536C92.0054 47.3953 91.967 48.6752 92.0438 49.9552C92.2166 52.8398 92.9462 55.6479 93.6565 58.3606C93.9061 59.2776 94.1557 60.2518 94.3669 61.1879C94.6933 62.6015 95.0197 64.2062 95.1541 65.8873H97.3429C97.2085 64.0152 96.8629 62.2386 96.4981 60.6912C96.2677 59.736 96.0181 58.7618 95.7685 57.8257" fill="#020202"/>
<path d="M92.1782 13.3722C89.7782 14.7859 88.415 17.8233 88.7222 21.09C88.991 23.9364 90.3542 26.6299 91.8134 29.0943C92.0246 29.4381 92.2166 29.782 92.4278 30.1449C93.6373 32.189 94.8853 34.2904 95.5573 36.5254C96.1717 38.5695 96.3061 40.7473 96.4405 42.8677C96.4981 43.842 96.5557 44.8545 96.6709 45.867C96.9013 47.9683 97.3621 50.0506 98.0149 52.0946V47.5481C97.9189 46.9559 97.8229 46.3637 97.7653 45.7523C97.6501 44.7781 97.5925 43.7847 97.5349 42.8104C97.4005 40.6327 97.2661 38.3976 96.6133 36.2198C95.9029 33.851 94.6357 31.6923 93.3877 29.61C93.1765 29.2662 92.9846 28.9223 92.7734 28.5785C91.1798 25.8467 90.0662 23.5161 89.8358 21.0136C89.567 18.1672 90.719 15.5309 92.7542 14.3274C94.0789 13.5442 95.7685 13.3531 97.2853 13.8116C97.5349 13.888 97.7653 13.9835 97.9957 14.0982V12.9329C97.8613 12.8755 97.7269 12.8373 97.5925 12.78C95.7877 12.226 93.7717 12.4553 92.1782 13.3913" fill="#020202"/>
<path d="M97.9189 17.04C96.3061 17.04 94.7893 17.7087 93.9637 18.7975C93.2533 19.7145 93.0038 20.8989 93.2342 22.217C93.4261 23.3441 93.9061 24.3948 94.3861 25.4073L97.9765 33.2014V30.6034L95.3653 24.9488C94.9237 23.9936 94.4629 23.0003 94.2901 22.026C94.1749 21.3192 94.1557 20.2876 94.8085 19.4471C95.4421 18.6447 96.6517 18.1289 97.8997 18.1289H97.9189C97.9189 18.1289 97.9381 18.1289 97.9573 18.1289V17.04C97.9573 17.04 97.9573 17.04 97.9381 17.04C97.9381 17.04 97.9189 17.04 97.8997 17.04" fill="#020202"/>
<path d="M95.9797 3.80156C96.6517 3.83977 97.3237 3.89708 97.9765 3.97349V2.8846C97.3237 2.80819 96.6901 2.76998 96.0565 2.71267C94.3669 2.59805 92.7734 2.48343 91.2566 1.87212C90.2006 1.43275 89.2214 0.764133 88.2806 0H86.6102C87.8966 1.1271 89.2598 2.21598 90.8534 2.8655C92.5238 3.55322 94.2709 3.66784 95.9797 3.80156Z" fill="#020202"/>
<path d="M76.9143 7.60312C77.6247 8.38635 78.6423 8.78752 79.7175 8.78752C80.5815 8.78752 81.4647 8.53918 82.2711 8.00429C83.8454 6.99181 85.2086 4.73762 83.8838 1.7193C83.6342 1.1462 83.2694 0.573099 82.8471 0H81.4839C82.0791 0.745029 82.5974 1.47096 82.8854 2.15867C83.9414 4.54659 82.943 6.28499 81.6759 7.10643C80.4855 7.87057 78.7575 8.02339 77.7015 6.87719C74.3991 3.20936 72.1144 1.31813 70.2904 0H68.4088C70.3864 1.33723 72.844 3.11384 76.9143 7.60312Z" fill="#020202"/>
<path d="M141.31 91.0654C140.389 91.0654 139.621 91.8105 139.621 92.7465C139.621 93.6826 140.37 94.4276 141.31 94.4276C142.251 94.4276 143 93.6826 143 92.7465C143 91.8105 142.251 91.0654 141.31 91.0654ZM142.347 93.7208L141.906 93.1286C141.906 93.1286 141.848 93.0522 141.81 93.014C141.79 92.9758 141.752 92.9567 141.733 92.9185C141.714 92.8994 141.675 92.8611 141.656 92.842C141.618 92.8229 141.598 92.8038 141.541 92.7847C141.541 92.7847 141.694 92.7274 141.771 92.7083C141.829 92.6701 141.886 92.6319 141.944 92.5937C141.982 92.5555 142.021 92.4982 142.059 92.4409C142.078 92.3836 142.098 92.3263 142.098 92.2498C142.098 92.1543 142.098 92.0779 142.04 92.0206C142.002 91.9442 141.944 91.906 141.886 91.8487C141.829 91.8105 141.733 91.7723 141.656 91.7532C141.56 91.734 141.464 91.7149 141.368 91.7149H140.638V93.7399H140.926V92.8802H141.157C141.157 92.8802 141.253 92.8802 141.291 92.8802C141.33 92.8802 141.368 92.8994 141.406 92.9376C141.445 92.9567 141.483 92.9949 141.522 93.0331C141.56 93.0713 141.598 93.1095 141.637 93.1668L142.04 93.7399H142.347C142.078 94.0073 141.733 94.1602 141.33 94.1602C140.542 94.1602 139.89 93.5107 139.89 92.7274C139.89 91.9442 140.542 91.2947 141.33 91.2947C142.117 91.2947 142.77 91.9442 142.77 92.7274C142.77 93.1095 142.616 93.4534 142.366 93.7208M141.483 92.651C141.483 92.651 141.349 92.6701 141.291 92.6701H140.907V91.9251H141.291C141.445 91.9251 141.579 91.9633 141.656 92.0206C141.733 92.0779 141.79 92.1734 141.79 92.2689C141.79 92.3263 141.79 92.3836 141.752 92.4409C141.733 92.4982 141.694 92.5364 141.656 92.5555C141.618 92.5937 141.56 92.6128 141.502 92.6319" fill="#020202"/>
<path d="M34.6364 77.9224C29.6637 77.1583 22.9629 77.5213 20.563 82.6792C19.5838 84.685 19.5838 87.5314 20.467 89.5946C22.3677 94.4468 28.7229 95.6885 33.3308 94.0838L33.4268 98H38.3612L38.2652 78.572C37.1324 78.3236 36.1148 78.1517 34.6556 77.9224M25.2669 86.2133C25.3053 81.1318 29.5485 80.5587 33.3692 81.2464V90.416C29.5677 92.4028 25.2285 91.2757 25.2669 86.2133Z" fill="#020202"/>
<path d="M53.529 90.9126C53.2794 90.9508 52.9722 90.9699 52.6074 91.0081C52.2618 91.0463 51.8778 91.0654 51.4938 91.0845C51.1098 91.1036 50.7258 91.1227 50.361 91.1227C48.7866 91.1227 47.6923 90.798 47.0587 90.1103C46.3867 89.3843 46.0411 88.1044 46.0411 86.2896V77.6167H41.0875V86.9009C41.0875 87.9898 41.2219 89.0023 41.5099 89.9001C41.7979 90.8362 42.2971 91.6576 43.0075 92.3645C43.7179 93.0713 44.6779 93.6062 45.8107 93.9882C46.9243 94.3703 48.345 94.5422 50.0154 94.5422C51.8394 94.5422 53.4522 94.4467 54.8154 94.2748C56.1594 94.1029 57.2537 93.9309 58.0601 93.759L58.5401 93.6635V77.6358H53.529V90.9317V90.9126Z" fill="#020202"/>
<path d="M92.7349 84.704C89.6054 83.6342 87.1478 83.0802 85.535 82.5645C82.847 81.7048 84.6326 80.5395 87.2246 80.2912C90.2198 80.0046 93.7717 80.2338 93.7717 80.2338V77.6167C89.8934 77.1964 85.151 77.5212 82.7894 78.9539C81.1383 79.9282 80.3127 81.0553 80.3127 82.5453C80.3127 84.5894 82.1751 85.8311 86.1494 87.111C88.607 87.8943 90.9494 88.6202 93.4069 89.4225C94.6549 89.8237 94.4245 90.7216 93.3109 90.8935C88.6838 91.5812 82.5783 90.626 82.5783 90.626V94.0264C92.0629 95.4592 97.9189 93.8163 97.9189 89.6518C97.9189 87.3021 96.4405 85.9648 92.7541 84.704" fill="#020202"/>
<path d="M115.544 79.9663C114.68 79.2213 113.624 78.6482 112.434 78.247C111.224 77.8459 109.9 77.6357 108.498 77.6357C107.096 77.6357 105.81 77.8459 104.62 78.247C103.429 78.6482 102.392 79.2404 101.528 79.9663C100.665 80.6923 99.9925 81.5901 99.5125 82.6408C99.0517 83.6724 98.8021 84.8186 98.8021 86.0794C98.8021 87.3402 99.0325 88.4864 99.5125 89.4989C99.9925 90.5305 100.665 91.4283 101.509 92.1734C102.373 92.9184 103.41 93.5106 104.6 93.9118C105.791 94.3129 107.096 94.5231 108.479 94.5231C109.861 94.5231 111.224 94.3129 112.415 93.9118C113.624 93.5106 114.661 92.9184 115.525 92.1734C116.389 91.4283 117.061 90.5305 117.522 89.4989C117.983 88.4864 118.232 87.3211 118.232 86.0794C118.232 84.8377 118.002 83.6724 117.522 82.6408C117.042 81.6092 116.37 80.7114 115.506 79.9663M108.498 92.3071C106.77 92.3071 105.445 91.7913 104.428 90.7024C103.372 89.5944 102.834 88.0279 102.834 86.0603C102.834 84.0736 103.352 82.5071 104.408 81.38C105.426 80.3102 106.751 79.7753 108.479 79.7753C110.207 79.7753 111.589 80.2911 112.626 81.38C113.701 82.488 114.239 84.0736 114.239 86.0603C114.239 88.0279 113.701 89.5753 112.645 90.6833C111.628 91.7531 110.264 92.288 108.498 92.288" fill="#020202"/>
<path d="M17.8366 85.6018V85.258C17.8366 84.341 17.7214 83.4814 17.491 82.7172C16.147 78.3617 11.9231 77.6357 6.31673 77.6357V80.2529C6.31673 80.2529 11.7311 80.081 12.5375 82.3161C8.42871 81.8958 3.35997 82.0295 0.883194 85.4108C-0.326392 86.9773 -0.211194 89.9956 0.844795 91.543C1.40159 92.3835 2.15038 93.0521 3.07197 93.5297C7.21912 95.6311 13.4975 94.5804 17.8366 93.9309V85.6209M12.8447 90.8552C10.7711 90.9699 8.35191 91.5812 6.56633 90.3585C5.49114 89.6326 5.41434 87.8178 6.00954 86.8244C7.46872 84.6085 10.6943 85.3535 12.8447 85.64V90.8552Z" fill="#020202"/>
<path d="M77.9703 85.6018V85.258C77.9703 84.341 77.8551 83.4814 77.6247 82.7172C76.2808 78.3617 72.0568 77.6357 66.4505 77.6357V80.2529C66.4505 80.2529 71.8648 80.081 72.6712 82.3161C68.5624 81.8958 63.4937 82.0295 61.0169 85.4108C59.8073 86.9773 59.9225 89.9956 60.9785 91.543C61.5353 92.3835 62.2841 93.0521 63.2057 93.5297C67.3528 95.6311 73.6312 94.5804 77.9703 93.9309C77.9703 93.8927 77.9703 85.6591 77.9703 85.6209M72.9784 90.8552C70.9048 90.9699 68.4856 91.5812 66.7001 90.3585C65.6249 89.6326 65.5481 87.8178 66.1433 86.8244C67.6024 84.6085 70.828 85.3535 72.9784 85.64V90.8552Z" fill="#020202"/>
<path d="M138.93 78.0178H135.397V79.8517H138.93V78.0178Z" fill="#020202"/>
<path d="M128.005 78.0178H124.472V79.8517H128.005V78.0178Z" fill="#020202"/>
<path d="M127.429 71.8477C126.93 72.0769 126.488 72.4017 126.104 72.8219C125.202 73.7962 124.76 75.1717 124.76 76.891V78.4383V88.6586V94.2177H120.651V78.1709C120.651 75.5155 121.362 73.4142 122.725 71.905C123.32 71.2555 123.992 70.7588 124.76 70.3958C125.336 70.1284 126.719 69.7654 128.255 69.9564V71.5611C127.947 71.6375 127.679 71.7331 127.41 71.8477" fill="#020202"/>
<path d="M136.76 91.2757C135.858 90.3015 135.416 88.926 135.416 87.2067V85.6594V74.312H131.307V85.9268C131.307 88.5822 132.018 90.6835 133.381 92.1927C133.976 92.8422 134.648 93.3389 135.416 93.7019C135.992 93.9693 137.374 94.3323 138.91 94.1412V92.5366C138.603 92.4602 138.315 92.3646 138.066 92.25C137.566 92.0208 137.125 91.696 136.741 91.2757" fill="#020202"/>
</g>
<defs>
<clipPath id="clip0_1_355">
<rect width="143" height="98" fill="white"/>
</clipPath>
</defs>
</svg>
