<svg width="56" height="198" viewBox="0 0 56 198" fill="none" xmlns="http://www.w3.org/2000/svg">
<path d="M8.21026 173.218C10.6713 165.069 12.9993 157.376 13.5314 149.398C13.7974 145.865 13.6644 142.161 13.5314 138.627C13.2653 131.504 13.0658 124.21 15.4603 117.03C18.2539 108.823 24.1071 102.042 29.7608 95.4886C32.4879 92.2973 35.348 89.0491 37.7425 85.6868C45.3252 74.9733 49.1165 62.2083 48.3183 49.7282C47.7197 39.9265 42.9971 28.0733 31.8228 24.3692C25.637 22.3176 17.7218 23.0015 10.2057 26.3067C8.98369 26.8302 7.41214 27.6199 5.60644 28.5949C3.34569 29.8156 0.561149 28.2151 0.561149 25.6459C0.561149 24.4358 1.21528 23.3167 2.28248 22.7463C4.01878 21.8181 5.53599 21.0698 6.74697 20.5511C16.192 16.448 26.3686 15.6502 34.5499 18.3856C49.1165 23.2294 55.1027 37.5901 55.8344 49.4433C56.6991 63.2341 52.5752 77.3098 44.1944 89.106C41.6669 92.6962 38.6737 96.1154 35.8801 99.3637C30.3595 105.746 25.1714 111.73 22.7769 118.853C20.7149 125.008 20.9145 131.561 21.114 138.457C21.247 142.161 21.3801 145.979 21.114 149.797C20.5154 158.402 17.9879 166.779 15.5268 174.871C14.6621 177.606 13.7974 180.513 13.0658 183.305C12.1961 186.548 11.3264 190.129 10.7593 193.891C10.4673 195.829 8.83991 197.324 6.88016 197.324C4.66014 197.324 2.90807 195.424 3.22738 193.227C3.81965 189.152 4.73239 185.295 5.68274 181.823C6.48091 178.974 7.34558 176.068 8.21026 173.275" fill="#D95A82" fill-opacity="0.1"/>
<path d="M21.2623 39.8532C29.4603 44.0736 34.1167 53.1417 33.0674 62.8943C32.1492 71.3921 27.4928 79.4337 22.5084 86.7909C21.787 87.8175 21.1312 88.8441 20.4097 89.9277C16.278 96.0302 12.015 102.304 9.7196 108.977C7.62092 115.079 7.16184 121.581 6.70275 127.911C6.506 130.82 6.30926 133.843 5.91576 136.865C5.67427 138.79 5.35869 140.71 4.9728 142.623C4.4501 145.213 1.32489 144.745 1.32489 142.102C1.32489 141.957 1.33817 141.813 1.36452 141.671C1.67902 139.974 1.98866 138.275 2.17749 136.523C2.57099 133.615 2.76773 130.649 2.96449 127.74C3.42357 121.239 3.88265 114.566 6.1125 108.064C8.5391 100.992 12.8676 94.5473 17.1306 88.3308C17.852 87.3042 18.5078 86.2776 19.2292 85.251C24.6727 77.0954 28.4765 70.1374 29.2635 62.6662C30.1817 54.1683 26.2467 46.2978 19.2948 42.7048C14.7695 40.3664 8.99819 39.7961 3.81708 41.1649C3.7573 41.1809 3.69785 41.1972 3.63869 41.2137C2.55173 41.5179 1.39047 40.7586 1.39047 39.6299C1.39047 38.9754 1.80299 38.407 2.42519 38.204C2.53937 38.1667 2.65354 38.1277 2.76772 38.0851C8.93258 36.4312 15.8189 37.1156 21.2623 39.9102" fill="#D95A82" fill-opacity="0.1"/>
<path d="M3.07779 50.8472C8.68718 50.8472 13.9627 52.8447 16.8342 56.0979C19.305 58.8374 20.1731 62.376 19.3717 66.314C18.7039 69.6813 17.0345 72.8204 15.365 75.8452L6.32758 92.6976C5.42636 94.3781 2.87746 93.7378 2.87746 91.8309C2.87746 91.5278 2.95257 91.2294 3.09608 90.9625L11.9593 74.4755C13.4952 71.6218 15.0979 68.654 15.6989 65.7433C16.0996 63.6316 16.1664 60.5496 13.8959 58.0384C11.6922 55.6413 7.48515 54.1003 3.14456 54.1003H3.07779C3.07779 54.1003 2.94423 54.0405 2.94423 53.9668V50.914C2.94423 50.8771 2.97413 50.8472 3.01102 50.8472C3.01102 50.8472 3.07778 50.8472 3.14456 50.8472" fill="#D95A82" fill-opacity="0.1"/>
<path d="M14.8613 11.852C13.138 11.9366 11.4147 12.0523 9.71829 12.1993C8.76178 12.2822 7.93239 11.5331 7.93239 10.573C7.93239 9.74042 8.56279 9.04214 9.39245 8.97274C11.148 8.82589 12.8714 8.72654 14.5948 8.59204C20.4578 8.24889 25.9876 7.90573 31.2509 6.07557C34.7452 4.8212 37.9971 2.94276 41.1222 0.787394C41.4194 0.582409 41.7714 0.470703 42.1324 0.470703C43.8187 0.470703 44.5209 2.59272 43.1272 3.54199C39.8986 5.74096 36.4645 7.70823 32.65 9.04958C26.8537 11.1085 20.7909 11.4517 14.8613 11.852Z" fill="#D95A82" fill-opacity="0.1"/>
</svg>
