<svg width="39" height="45" viewBox="0 0 39 45" fill="none" xmlns="http://www.w3.org/2000/svg">
<path d="M17.8236 38.6106L17.8498 38.5584C18.0726 37.8934 18.5313 37.6717 19.5535 37.2414C20.6413 36.785 22.1353 36.1591 23.2755 34.3988C25.3593 31.191 25.1103 26.5228 22.5678 20.9027C20.6282 16.6256 17.3387 11.8661 13.787 8.18894C12.66 6.96321 11.8343 6.01131 11.1266 5.09853C9.685 3.31209 8.66277 1.643 7.98128 0H5.59607C6.50035 2.60794 7.99439 4.74646 9.37047 6.48074C10.1175 7.43264 10.9825 8.42366 12.1489 9.70155L12.1751 9.72763C18.256 16.0128 25.1496 27.4486 21.4145 33.1991C20.6413 34.3857 19.6977 34.79 18.6885 35.2072C17.5746 35.6767 16.3164 36.2113 15.7529 37.8282C14.6258 40.71 15.9364 42.9919 17.7842 44.974H20.9427C18.374 42.5747 16.9455 40.8534 17.8367 38.6106" fill="#020202"/>
<path d="M2.41142 29.2741C2.41142 28.8437 2.38521 28.4265 2.359 28.0222C2.30658 27.2138 2.25416 26.4575 2.47695 25.8055C2.90943 24.5406 4.36415 23.9669 5.54365 23.9669C5.54365 23.9669 5.54365 23.9669 5.55676 23.9669C7.01148 23.9669 8.4793 24.6189 9.86849 25.2839L10.183 25.4404C11.5984 26.1184 13.0662 26.8226 14.6651 27.0312C15.6611 27.1616 16.4213 26.9921 16.9717 26.5227C17.7842 25.8316 17.9677 24.6319 17.5221 22.9889C16.631 19.6768 15.8839 17.773 13.8788 15.2172C13.6036 14.8652 13.0662 14.3305 12.3192 13.5742C9.80296 11.0576 4.98011 6.2068 1.62509 0.0129395H0V0.104217C3.45987 6.76751 8.62346 11.9573 11.2708 14.6174C11.9523 15.3085 12.4896 15.8432 12.7124 16.13C14.5734 18.4902 15.2418 20.1984 16.0936 23.3801C16.3689 24.3972 16.3426 25.1144 16.0019 25.4013C15.7922 25.5838 15.4121 25.636 14.8486 25.5708C13.4856 25.4013 12.1358 24.7493 10.8252 24.1234L10.5107 23.9669C8.97731 23.2367 7.32601 22.5195 5.56986 22.5064H5.54365C3.80061 22.5064 1.74304 23.3801 1.07466 25.3491C0.760122 26.2749 0.825651 27.2268 0.878073 28.1396C0.904284 28.5308 0.930496 28.9089 0.930496 29.2741C0.917391 30.3824 0.576645 31.4647 0 32.3645V34.6334C1.48093 33.3294 2.37211 31.3343 2.41142 29.3001" fill="#020202"/>
<path d="M1.06155 20.6941C2.05757 20.3159 3.32881 20.5507 4.57384 20.7854C4.73111 20.8114 4.88838 20.8375 5.03254 20.8766C7.10322 21.2418 8.4793 21.0331 9.25253 20.2247C9.80296 19.6509 9.97333 18.8033 9.73743 17.8906C9.52774 17.0821 9.04284 16.3519 8.58414 15.726C7.33911 14.0178 5.80576 12.453 4.32483 10.9273C3.56471 10.145 2.77838 9.34954 2.04447 8.54108C1.24503 7.65438 0.563539 6.81984 0 6.02441V7.26319C0.445589 7.83693 0.9436 8.42372 1.49403 9.03659C2.24105 9.85809 3.02738 10.6666 3.78751 11.4489C5.25533 12.9485 6.77558 14.5002 7.98129 16.1563C8.38756 16.717 8.83315 17.382 9.01663 18.0731C9.187 18.7381 9.08215 19.3249 8.7152 19.7161C8.13855 20.3159 6.93284 20.4594 5.16359 20.1464C5.00633 20.1203 4.86216 20.0943 4.7049 20.0682C3.36813 19.8204 1.97894 19.5596 0.79944 20.016C0.498012 20.1334 0.2359 20.2768 0 20.4594V21.5026C0.275217 21.1635 0.615961 20.8766 1.06155 20.7071" fill="#020202"/>
<path d="M10.419 37.0979C10.8253 35.5722 10.3403 34.6986 9.7506 34.3986C9.0429 34.0335 8.12551 34.3595 7.4047 35.2332C6.38247 36.6415 5.62234 38.0106 4.87533 39.3407C3.72204 41.414 2.67359 43.2917 0.891235 44.9739H1.92657C3.48614 43.3309 4.48216 41.5444 5.5175 39.6928C6.25141 38.3758 7.01153 37.0327 7.98135 35.6765C8.45315 35.1028 9.02979 34.855 9.40985 35.0506C9.72439 35.2201 9.9996 35.8069 9.69817 36.9023C9.30501 38.3627 8.70215 39.8492 8.1124 41.2836C7.60128 42.5615 7.09017 43.8003 6.76253 44.9608H7.53576C7.85029 43.8916 8.32209 42.7441 8.79389 41.5575C9.38364 40.097 9.9996 38.5844 10.4059 37.0848" fill="#020202"/>
<path d="M3.68266 17.3038C4.41657 16.8735 4.61316 16.0128 4.18068 15.2174C3.85304 14.6306 3.27639 14.1482 2.71285 13.6787L2.63422 13.6135C1.71683 12.8572 0.838756 12.0748 0 11.2794V12.2965C0.694595 12.9355 1.4154 13.5744 2.16242 14.1873L2.24105 14.2525C2.75217 14.6697 3.27639 15.1131 3.5385 15.5695C3.73509 15.9216 3.7744 16.391 3.3026 16.6648C2.77838 16.9778 1.87409 16.9517 1.04844 16.9387C0.694594 16.9387 0.340745 16.9387 0 16.9387V17.6819C0.35385 17.6819 0.7077 17.6819 1.06155 17.6819C1.96583 17.708 2.97496 17.721 3.68266 17.3038Z" fill="#020202"/>
<path d="M13.001 42.3922C13.001 41.7141 13.001 41.0622 13.0927 40.4362C13.2631 39.2627 13.7218 38.1021 14.2198 36.8894C14.9013 35.2073 15.609 33.46 15.491 31.5823C15.4255 30.4869 15.0323 29.6263 14.3246 29.0395C13.4728 28.3354 12.2671 28.1137 11.3104 27.9312C9.86875 27.6573 8.34851 27.4487 7.06416 28.0746C6.14677 28.5179 5.5177 29.3264 5.13764 30.5391C4.94106 31.165 4.81 31.804 4.69205 32.4038C4.58721 32.9123 4.49547 33.3948 4.36441 33.8642C4.03677 35.0378 3.49945 35.8723 2.72622 36.4461C2.22821 36.8112 1.59914 37.0981 0.943861 37.385C0.642433 37.5284 0.314795 37.6588 0.0133667 37.8153V39.4974C0.183739 39.3931 0.367217 39.2888 0.550695 39.1975C0.865228 39.041 1.19287 38.8845 1.54672 38.728C2.25442 38.4151 2.97522 38.0891 3.60429 37.6197C4.63963 36.8503 5.36044 35.755 5.77981 34.2554C5.93708 33.7208 6.04193 33.1862 6.13367 32.6776C6.25162 32.0778 6.36957 31.5171 6.53994 30.9694C6.80205 30.1479 7.169 29.6524 7.70633 29.3916C8.5713 28.9613 9.81633 29.1439 11.022 29.3655C11.8215 29.509 12.8044 29.6915 13.3548 30.161C13.7349 30.4739 13.9446 30.9694 13.997 31.6605C14.0887 33.1992 13.4859 34.7118 12.8306 36.3157C12.3326 37.5675 11.8084 38.8584 11.6118 40.2146C11.5069 40.9448 11.5069 41.675 11.5069 42.3792C11.5069 43.0442 11.5069 43.6701 11.4152 44.283C11.389 44.5177 11.3366 44.7394 11.2842 44.961H12.8044C12.8306 44.8046 12.8699 44.635 12.883 44.4786C12.9748 43.7744 12.9879 43.0703 12.9879 42.3922" fill="#020202"/>
<path d="M28.2425 40.7752C28.3473 39.7842 28.5308 38.7801 28.7143 37.8152C28.9502 36.5242 29.1992 35.1942 29.2778 33.8381C29.5793 28.6613 27.4955 23.6932 25.6607 19.3118C23.9439 15.2173 21.9911 10.5882 18.4788 7.23704C17.5877 6.38946 16.6047 5.63316 15.6611 4.90293C14.8355 4.27703 13.9967 3.62504 13.2235 2.9209C12.1751 1.95596 11.3756 0.977979 10.8645 0H9.22632C9.80296 1.36917 10.799 2.71226 12.2144 4.00319C13.0269 4.74646 13.8919 5.41148 14.7438 6.06347C15.6612 6.76761 16.6047 7.49784 17.4435 8.29326C20.733 11.4358 22.6202 15.9215 24.2846 19.8725C26.067 24.0974 28.0852 28.896 27.7969 33.7337C27.7183 34.9986 27.4955 36.2243 27.2596 37.5283C27.0761 38.5324 26.8926 39.5625 26.7747 40.5926C26.6043 42.2226 26.6567 43.67 26.945 44.9479H28.4784C28.1508 43.7613 28.0721 42.353 28.2556 40.7491" fill="#020202"/>
<path d="M34.4282 41.414C34.284 40.6447 34.0481 39.8884 33.8122 39.1582C33.4584 38.0237 33.1307 36.9414 33.0783 35.82C33.039 34.9594 33.1831 34.0857 33.3142 33.2251C33.4846 32.1428 33.6549 31.0083 33.4977 29.8869C33.2487 28.1266 32.2526 26.627 31.2959 25.1796C31.1125 24.9058 30.929 24.6189 30.7455 24.345C29.0156 21.6458 27.8099 18.6076 26.6304 15.6606C25.7523 13.4569 24.848 11.1619 23.7209 9.02338C22.0696 5.86777 20.1169 4.39428 18.2166 2.95991C17.0633 2.08625 15.9493 1.23867 14.9533 0.0129395H14.0097C15.1368 1.53859 16.4342 2.5296 17.7841 3.5467C19.6058 4.92891 21.493 6.36328 23.0788 9.36241C24.1927 11.4748 25.0839 13.7438 25.962 15.9344C27.1415 18.9075 28.3734 21.9849 30.1427 24.7493C30.3261 25.0361 30.5096 25.31 30.6931 25.5969C31.6105 26.9791 32.5541 28.4004 32.7769 29.9912C32.921 31.0083 32.7638 32.0385 32.5934 33.1208C32.4492 34.0075 32.3182 34.9333 32.3575 35.8591C32.4099 37.0848 32.7769 38.2584 33.1176 39.3929C33.3404 40.1101 33.5632 40.8403 33.7074 41.5705C33.9302 42.705 33.8646 43.9829 33.4059 45H34.2185C34.6379 43.8655 34.651 42.5354 34.4413 41.4401" fill="#020202"/>
<path d="M37.4163 39.4581C36.9314 37.5935 36.4727 35.8331 36.3679 34.0075C36.3155 33.1991 36.3417 32.3515 36.3679 31.543C36.4203 29.9131 36.4596 28.244 35.9878 26.601C35.4374 24.7233 34.2841 23.1715 33.1701 21.672C32.6328 20.9417 32.0693 20.1985 31.5975 19.4291C30.1034 16.9777 29.3564 14.0568 29.5137 11.2011C29.6316 8.95824 30.5621 6.24598 32.7639 5.3984C33.9827 4.92897 35.5422 5.08545 37.0232 5.84175C37.4687 6.06343 38.1502 6.49374 38.9235 7.01533V5.24193C38.4386 4.92897 38.0192 4.68122 37.7046 4.52474C35.8437 3.58588 33.8385 3.40333 32.2265 4.02923C29.3564 5.13761 28.1769 8.42362 28.0327 11.1359C27.8624 14.2915 28.6749 17.5123 30.3262 20.2115C30.8242 21.033 31.414 21.8154 31.9644 22.5587C33.0522 24.0191 34.0744 25.3883 34.5462 27.0182C34.9525 28.4265 34.9132 29.9261 34.8738 31.5039C34.8476 32.3515 34.8214 33.2252 34.8738 34.0988C34.9918 36.0678 35.4898 37.9846 35.9747 39.8363C36.1451 40.4622 36.3155 41.1272 36.4596 41.7662C36.6824 42.7311 36.9052 43.8264 36.9969 44.9739H38.491C38.3992 43.696 38.1633 42.4833 37.9143 41.4271C37.7571 40.7751 37.5867 40.1101 37.4163 39.4712" fill="#020202"/>
<path d="M34.9655 9.12771C33.3273 10.0927 32.3968 12.166 32.6065 14.3958C32.79 16.3387 33.7205 18.1773 34.7165 19.8594C34.8607 20.0941 34.9918 20.3288 35.1359 20.5766C35.9616 21.9718 36.8134 23.4062 37.2721 24.9318C37.6915 26.3271 37.7832 27.8136 37.875 29.261C37.9143 29.9261 37.9536 30.6172 38.0322 31.3083C38.1895 32.7426 38.504 34.164 38.9496 35.5592V32.4558C38.8841 32.0515 38.8186 31.6473 38.7793 31.23C38.7006 30.565 38.6613 29.8869 38.622 29.2219C38.5303 27.7354 38.4385 26.2097 37.9929 24.7232C37.508 23.1063 36.6431 21.6328 35.7912 20.2115C35.647 19.9768 35.516 19.742 35.3718 19.5073C34.2841 17.6426 33.5239 16.0518 33.3667 14.3436C33.1832 12.4007 33.9695 10.6012 35.3587 9.7797C36.263 9.24507 37.4163 9.11467 38.4516 9.42763C38.622 9.47979 38.7793 9.54498 38.9365 9.62322V8.8278C38.8448 8.78868 38.7531 8.7626 38.6613 8.72348C37.4294 8.34533 36.0533 8.50181 34.9655 9.14075" fill="#020202"/>
<path d="M38.8842 11.6313C37.7833 11.6313 36.748 12.0877 36.1844 12.831C35.6995 13.4569 35.5292 14.2654 35.6864 15.1651C35.8175 15.9345 36.1451 16.6516 36.4728 17.3427L38.9235 22.6629V20.8895L37.1412 17.0298C36.8397 16.3778 36.5252 15.6997 36.4072 15.0347C36.3286 14.5522 36.3155 13.8481 36.7611 13.2744C37.1936 12.7267 38.0192 12.3746 38.8711 12.3746H38.8842C38.8842 12.3746 38.8973 12.3746 38.9104 12.3746V11.6313C38.9104 11.6313 38.9104 11.6313 38.8973 11.6313C38.8973 11.6313 38.8842 11.6313 38.8711 11.6313" fill="#020202"/>
<path d="M37.5606 2.5949C38.0193 2.62098 38.478 2.6601 38.9236 2.71226V1.969C38.478 1.91684 38.0455 1.89076 37.613 1.85164C36.4597 1.7734 35.372 1.69516 34.3366 1.27789C33.6158 0.977979 32.9475 0.521589 32.3053 0H31.1651C32.0432 0.769343 32.9737 1.51261 34.0614 1.95596C35.2016 2.42539 36.3942 2.50363 37.5606 2.5949Z" fill="#020202"/>
<path d="M24.547 5.18981C25.0319 5.72443 25.7265 5.99827 26.4604 5.99827C27.0501 5.99827 27.653 5.82875 28.2034 5.46364C29.2781 4.77254 30.2086 3.23385 29.3043 1.17357C29.1339 0.782383 28.8849 0.391191 28.5966 0H27.6661C28.0724 0.508549 28.4262 1.00406 28.6228 1.47349C29.3436 3.10345 28.6621 4.29007 27.7972 4.85077C26.9846 5.37236 25.8051 5.47668 25.0843 4.6943C22.8301 2.19067 21.2706 0.89974 20.0256 0H18.7412C20.0911 0.91278 21.7686 2.12547 24.547 5.18981Z" fill="#020202"/>
</svg>
